<svg xmlns="http://www.w3.org/2000/svg" width="16.653" height="19.721" viewBox="0 0 16.653 19.721"><defs><style>.a{fill:#bfb4fd;}</style></defs><path class="a" d="M20.325,5a2.092,2.092,0,0,0-1.972,2.191v.794a5.361,5.361,0,0,0-3.944,5.122v2.849A9.289,9.289,0,0,1,12.163,21a.657.657,0,0,0,.493,1.1h5.258v.363a2.415,2.415,0,0,0,4.82,0v-.363h5.259a.657.657,0,0,0,.493-1.1,9.288,9.288,0,0,1-2.246-5.04V13.107A5.361,5.361,0,0,0,22.3,7.985V7.191A2.092,2.092,0,0,0,20.325,5Zm0,1.315c.355,0,.657.245.657.876v.657H19.667V7.191C19.667,6.559,19.97,6.315,20.325,6.315Zm-1.1,2.849H21.42a4.113,4.113,0,0,1,3.506,3.944v2.862a9.2,9.2,0,0,0,1.739,4.807H13.984a9.2,9.2,0,0,0,1.739-4.807V13.107A4.113,4.113,0,0,1,19.229,9.163Zm0,12.928H21.42v.363a1.106,1.106,0,0,1-2.191,0Z" transform="translate(-11.998 -5)"/></svg>