<svg xmlns="http://www.w3.org/2000/svg" width="14.735" height="16.841" viewBox="0 0 14.735 16.841"><defs><style>.a{fill:#bfb4fd;}</style></defs><path class="a" d="M42.422,92.733a1.084,1.084,0,0,1,.294.74,1.031,1.031,0,0,1-.294.726,1.008,1.008,0,0,1-.757.311H29.032a1.008,1.008,0,0,1-.757-.311,1.031,1.031,0,0,1-.294-.726,1.084,1.084,0,0,1,.294-.74l.1-.131a6.064,6.064,0,0,0,1.118-1.547,8.267,8.267,0,0,0,.595-3.387,5.017,5.017,0,0,1,1.182-3.324A5.139,5.139,0,0,1,34.3,82.567v-.687a1.07,1.07,0,0,1,1.055-1.055,1,1,0,0,1,.736.311,1.009,1.009,0,0,1,.315.743v.687a5.139,5.139,0,0,1,3.026,1.777,5.017,5.017,0,0,1,1.182,3.324,8.267,8.267,0,0,0,.595,3.387A6.063,6.063,0,0,0,42.323,92.6.631.631,0,0,0,42.422,92.733ZM35.35,97.667a2.048,2.048,0,0,1-1.479-.609,2,2,0,0,1-.626-1.5h4.208a2,2,0,0,1-.626,1.5A2.046,2.046,0,0,1,35.35,97.667Z" transform="translate(-27.981 -80.826)"/></svg>