<svg xmlns="http://www.w3.org/2000/svg" width="17.711" height="17.771" viewBox="0 0 17.711 17.771">
  <path id="Setting" d="M156.2,46.6h-1.326a6.337,6.337,0,0,0-.936-2.262l1.092-1.092a.39.39,0,0,0,0-.624l-1.482-1.482a.474.474,0,0,0-.624,0l-1.17,1.092a6.62,6.62,0,0,0-2.028-.858V39.89a.368.368,0,0,0-.39-.39h-2.106a.368.368,0,0,0-.39.39v1.4a6.3,6.3,0,0,0-2.106.858L143.488,40.9a.475.475,0,0,0-.624,0l-1.482,1.482a.405.405,0,0,0-.156.312.591.591,0,0,0,.156.312l1.17,1.17a6.338,6.338,0,0,0-.936,2.262H140.29a.368.368,0,0,0-.39.39v2.106a.368.368,0,0,0,.39.39h1.326a6.305,6.305,0,0,0,.858,2.106l-1.092,1.092a.39.39,0,0,0,0,.624l1.482,1.482a.39.39,0,0,0,.624,0l1.014-1.014a7.884,7.884,0,0,0,2.34,1.014v1.248a.368.368,0,0,0,.39.39h2.106a.368.368,0,0,0,.39-.39v-1.17a8.164,8.164,0,0,0,2.262-.936l.858.858a.39.39,0,0,0,.624,0l1.482-1.482a.405.405,0,0,0,.156-.312.591.591,0,0,0-.156-.312l-.936-.858a6.305,6.305,0,0,0,.858-2.106H156.2a.368.368,0,0,0,.39-.39V47.066A.364.364,0,0,0,156.2,46.6Zm-8.034,4.753a3.271,3.271,0,1,1,3.271-3.271A3.257,3.257,0,0,1,148.168,51.351Z" transform="translate(-139.4 -39)" fill="none" stroke="#bfb4fd" stroke-width="1"/>
</svg>
