<svg xmlns="http://www.w3.org/2000/svg" width="11.751" height="15.665" viewBox="0 0 11.751 15.665"><defs><style>.a{fill:#bfb4fd;}</style></defs><path class="a" d="M20.721,74.093a1.461,1.461,0,0,1,1.468,1.468V88.287a1.434,1.434,0,0,1-.428,1.044,1.414,1.414,0,0,1-1.04.428H11.911a1.461,1.461,0,0,1-1.472-1.472V75.561a1.461,1.461,0,0,1,1.472-1.468Zm-.978,11.165v-.579a1.605,1.605,0,0,0-.6-1.254,2.122,2.122,0,0,0-1.452-.517h-.155a3.192,3.192,0,0,1-2.446,0H14.94a2.124,2.124,0,0,0-1.455.517,1.6,1.6,0,0,0-.6,1.254v.579a.524.524,0,0,0,.2.415.7.7,0,0,0,.474.168h5.508a.692.692,0,0,0,.474-.168A.527.527,0,0,0,19.743,85.258Zm-3.427-7.25a1.985,1.985,0,1,0,1.376.583A1.875,1.875,0,0,0,16.316,78.008Z" transform="translate(-10.439 -74.093)"/></svg>