<svg xmlns="http://www.w3.org/2000/svg" width="13.794" height="18.391" viewBox="0 0 13.794 18.391"><defs><style>.a{fill:#bfb4fd;}</style></defs><path class="a" d="M66.236,46.653a.831.831,0,0,0,.247.611.851.851,0,0,0,.611.255h4.887V59.3a.858.858,0,0,1-.862.858H59.049a.858.858,0,0,1-.862-.858V42.628a.858.858,0,0,1,.862-.858h7.187Zm-5.753-2.3v.576a.285.285,0,0,0,.093.2.268.268,0,0,0,.193.085h2.88a.268.268,0,0,0,.193-.085.285.285,0,0,0,.093-.2v-.576a.323.323,0,0,0-.286-.286H60.77a.323.323,0,0,0-.286.286Zm0,2.876a.271.271,0,0,0,.093.2.263.263,0,0,0,.193.093h2.88a.263.263,0,0,0,.193-.093.271.271,0,0,0,.093-.2v-.576a.277.277,0,0,0-.093-.2.273.273,0,0,0-.193-.089H60.77a.273.273,0,0,0-.193.089.277.277,0,0,0-.093.2Zm5.173,9.487a1.607,1.607,0,0,0,1.1-.506,1.561,1.561,0,0,0,.452-1.113,1.594,1.594,0,0,0-.325-.97,1.726,1.726,0,0,0-.827-.607l-1.616-.468a.418.418,0,0,1-.236-.162.531.531,0,0,1-.089-.309.453.453,0,0,1,.128-.321.384.384,0,0,1,.305-.143h1.005a.906.906,0,0,1,.468.128.278.278,0,0,0,.36-.019l.429-.4A.254.254,0,0,0,66.9,51.6a.247.247,0,0,0-.128-.2,1.913,1.913,0,0,0-1.113-.433v-.858a.285.285,0,0,0-.085-.2.28.28,0,0,0-.2-.089h-.576a.258.258,0,0,0-.193.089.279.279,0,0,0-.093.2v.858a1.594,1.594,0,0,0-1.094.5,1.547,1.547,0,0,0-.448,1.113,1.566,1.566,0,0,0,.321.97,1.805,1.805,0,0,0,.827.615l1.62.468a.367.367,0,0,1,.228.159.511.511,0,0,1,.093.305.479.479,0,0,1-.128.325.391.391,0,0,1-.305.143h-1a.955.955,0,0,1-.472-.124.263.263,0,0,0-.356.015l-.437.394a.275.275,0,0,0-.085.236.265.265,0,0,0,.124.193,1.965,1.965,0,0,0,1.113.437v.858a.322.322,0,0,0,.286.29h.576a.285.285,0,0,0,.2-.093.27.27,0,0,0,.085-.2ZM71.73,45.539a.841.841,0,0,1,.251.611v.216h-4.6v-4.6H67.6a.814.814,0,0,1,.611.251Z" transform="translate(-58.187 -41.77)"/></svg>