<svg xmlns="http://www.w3.org/2000/svg" width="75.297" height="37.512" viewBox="0 0 75.297 37.512">
  <g id="Group_3640" data-name="Group 3640" transform="translate(-11.832 -29.523)">
    <path id="Path_5086" data-name="Path 5086" d="M81.164,67.035H41.956A5.962,5.962,0,0,1,36,61.079v-25.6a5.962,5.962,0,0,1,5.955-5.956H81.163a5.963,5.963,0,0,1,5.956,5.956v25.6A5.963,5.963,0,0,1,81.164,67.035ZM39.329,34.125A2.953,2.953,0,0,0,39,35.479v25.6a2.959,2.959,0,0,0,2.955,2.956H81.164a2.959,2.959,0,0,0,2.956-2.956v-25.6a2.942,2.942,0,0,0-.239-1.165L64.039,50.047a1.5,1.5,0,0,1-1.789.055Zm2.947-1.6L63.05,47,81.307,32.526q-.072,0-.144,0Zm44.843,2.956h0ZM78.7,60.5a1.494,1.494,0,0,1-1.052-.432L70.56,53.089a1.5,1.5,0,1,1,2.105-2.136l7.084,6.979A1.5,1.5,0,0,1,78.7,60.5Zm-33.844-.607a1.5,1.5,0,0,1-1.1-2.517l6.4-6.932a1.5,1.5,0,1,1,2.205,2.034l-6.4,6.932A1.5,1.5,0,0,1,44.852,59.893Zm-12.73-5.047H24.516a1.5,1.5,0,0,1,0-3h7.606a1.5,1.5,0,0,1,0,3Zm0-6.1H19.433a1.5,1.5,0,1,1,0-3h12.69a1.5,1.5,0,0,1,0,3Zm0-6.1H20.492a1.5,1.5,0,0,1,0-3h11.63a1.5,1.5,0,0,1,0,3Zm-15.932,0H13.332a1.5,1.5,0,1,1,0-3H16.19a1.5,1.5,0,0,1,0,3Z" fill="#fdc421"/>
  </g>
</svg>
