<svg xmlns="http://www.w3.org/2000/svg" width="19.779" height="18.152" viewBox="0 0 19.779 18.152"><defs><style>.a{fill:#f0f5f8;}</style></defs><path class="a" d="M37.2,38.568c.009-.028.017-.058.029-.085a.978.978,0,0,1,.22-.335l2.564-2.565a.985.985,0,0,1,1.393,0A1.015,1.015,0,0,1,41.4,37l-.93.955h8.716a1,1,0,0,1,0,1.989H40.345l1.01.951a.949.949,0,0,1,0,1.363.985.985,0,0,1-1.392-.015L37.4,39.673A.994.994,0,0,1,37.2,38.568Z" transform="translate(-37.112 -30)"/><path class="a" d="M10.87,25.437a.888.888,0,0,1,.87.961v2.547a1.14,1.14,0,0,0,1.006,1.217h6.949a1.35,1.35,0,0,0,1.246-1.217V16.869c0-.6-.645-.88-1.246-.88H12.746c-.6,0-1.006.279-1.006.88v2.547a.875.875,0,1,1-1.741,0V16.869A2.68,2.68,0,0,1,12.746,14h6.949a3.1,3.1,0,0,1,3.235,2.869V28.945a3.387,3.387,0,0,1-3.235,3.206H12.746A2.976,2.976,0,0,1,10,28.945V26.4A.888.888,0,0,1,10.87,25.437Z" transform="translate(-3.151 -14)"/></svg>