<svg xmlns="http://www.w3.org/2000/svg" width="14.958" height="14.958" viewBox="0 0 14.958 14.958"><defs><style>.a{fill:#bfb4fd;}</style></defs><g transform="translate(9.092 9.092)"><path class="a" d="M522.736,67.783H518.63a.88.88,0,0,1,0-1.76h3.226V62.8a.88.88,0,0,1,1.76,0V66.9A.88.88,0,0,1,522.736,67.783Z" transform="translate(-517.75 -61.917)"/></g><g transform="translate(0 9.092)"><path class="a" d="M514.986,67.783H510.88a.88.88,0,0,1-.88-.88V62.8a.88.88,0,0,1,1.76,0v3.226h3.226a.88.88,0,0,1,0,1.76Z" transform="translate(-510 -61.917)"/></g><path class="a" d="M510.88,60.033a.88.88,0,0,1-.88-.88V55.047a.879.879,0,0,1,.88-.88h4.106a.88.88,0,0,1,0,1.76H511.76v3.226A.88.88,0,0,1,510.88,60.033Z" transform="translate(-510 -54.167)"/><g transform="translate(9.092)"><path class="a" d="M522.736,60.033a.88.88,0,0,1-.88-.88V55.927H518.63a.88.88,0,0,1,0-1.76h4.106a.88.88,0,0,1,.88.88v4.106A.88.88,0,0,1,522.736,60.033Z" transform="translate(-517.75 -54.167)"/></g></svg>