<svg xmlns="http://www.w3.org/2000/svg" width="20.492" height="16.391" viewBox="0 0 20.492 16.391"><defs><style>.a{isolation:isolate;}.b{fill:#bfb4fd;}</style></defs><g class="a" transform="translate(-80.564 -28.713)"><path class="b" d="M96.193,34.86a.759.759,0,0,1,.765.765v1.541a.747.747,0,0,1-.221.545.756.756,0,0,1-.545.224h-.259v2.048a1.036,1.036,0,0,1-1.024,1.027H94.4a2.084,2.084,0,0,1-2.051,2.051H87.957l-3.3,1.92a1.018,1.018,0,0,1-.769.083,1.051,1.051,0,0,1-.638-.465l-2.565-4.455a1,1,0,0,1-.079-.769.956.956,0,0,1,.462-.61l2.565-1.5v-1.51a1.954,1.954,0,0,1,.272-1.007,2.211,2.211,0,0,1,.721-.752l2.083-1.252v3.91a2.307,2.307,0,1,0,4.613,0V34.86Zm4.741-1.186a1,1,0,0,1,.079.769.914.914,0,0,1-.465.607l-2.562,1.476v-.9a1.8,1.8,0,0,0-1.793-1.789H90.3v2.817a1.232,1.232,0,0,1-.369.914,1.279,1.279,0,0,1-2.193-.914V32.615a.943.943,0,0,1,.476-.865l1.058-.672a2.024,2.024,0,0,1,1.09-.321h3.3l3.3-1.92a1.011,1.011,0,0,1,.772-.083,1.068,1.068,0,0,1,.641.465Z" transform="translate(0 0)"/></g></svg>