<svg xmlns="http://www.w3.org/2000/svg" width="15.188" height="11.83" viewBox="0 0 15.188 11.83"><defs><style>.a{fill:#bfb4fd;}</style></defs><path class="a" d="M450.1-53.941a.338.338,0,0,1,.092.212.328.328,0,0,1-.065.238l-.66.818a.251.251,0,0,1-.212.106.387.387,0,0,1-.238-.079l-6.206-5.1a.348.348,0,0,0-.211-.079.351.351,0,0,0-.212.079l-6.2,5.1a.387.387,0,0,1-.238.079.251.251,0,0,1-.212-.106l-.66-.818a.328.328,0,0,1-.065-.238.338.338,0,0,1,.092-.212l6.707-5.519a1.189,1.189,0,0,1,.792-.291,1.294,1.294,0,0,1,.819.291l2.349,1.954v-1.928a.306.306,0,0,1,.094-.224.3.3,0,0,1,.224-.092h1.478a.3.3,0,0,1,.224.092.3.3,0,0,1,.092.224v3.671Zm-2.218,1.611a.357.357,0,0,0-.1-.264l-4.965-4.067a.348.348,0,0,0-.211-.079.351.351,0,0,0-.212.079l-4.964,4.067a.358.358,0,0,0-.106.264v3.777a.608.608,0,0,0,.186.448.611.611,0,0,0,.448.185h3.064a.3.3,0,0,0,.224-.092.3.3,0,0,0,.092-.224v-2.958a.3.3,0,0,1,.092-.224.3.3,0,0,1,.224-.092h1.9a.3.3,0,0,1,.224.092.3.3,0,0,1,.092.224v2.958a.3.3,0,0,0,.092.224.3.3,0,0,0,.224.092h3.064a.611.611,0,0,0,.448-.185.607.607,0,0,0,.185-.448Z" transform="translate(-435.01 59.75)"/></svg>