<svg xmlns="http://www.w3.org/2000/svg" width="16.961" height="11.869" viewBox="0 0 16.961 11.869"><defs><style>.a{fill:#bfb4fd;}</style></defs><g transform="translate(-3.005 -174.992)"><g transform="translate(0 2)"><path class="a" d="M7.473,72.914a.541.541,0,0,1,.2-.2.345.345,0,0,1,.254-.04l6.619.846-2.436,4.023a.415.415,0,0,1-.211.185.33.33,0,0,1-.265,0L6.387,76.251a.4.4,0,0,1-.291-.239.391.391,0,0,1,.026-.37Zm9.876,5.693a1.041,1.041,0,0,0,.345-.054l3.627-1.031v4.713a.781.781,0,0,1-.185.516.894.894,0,0,1-.45.3l-5.747,1.428a1.532,1.532,0,0,1-.818,0L8.4,83.055a.906.906,0,0,1-.45-.3.8.8,0,0,1-.185-.516V77.522l3.627,1.031a1.041,1.041,0,0,0,.345.054,1.231,1.231,0,0,0,.635-.174A1.458,1.458,0,0,0,12.847,78l1.7-2.832L16.238,78a1.458,1.458,0,0,0,.476.436A1.231,1.231,0,0,0,17.349,78.607Zm5.613-2.966a.391.391,0,0,1,.026.37.4.4,0,0,1-.291.239l-5.243,1.482a.33.33,0,0,1-.265,0,.439.439,0,0,1-.211-.185l-2.436-4.023,6.619-.846a.345.345,0,0,1,.254.04.52.52,0,0,1,.2.2Z" transform="translate(-3.057 100.323)"/></g></g></svg>