<svg xmlns="http://www.w3.org/2000/svg" width="19.465" height="13.453" viewBox="0 0 19.465 13.453"><defs><style>.a{fill:#f0f5f8;}</style></defs><g transform="translate(2.586 0)"><g transform="translate(0)"><path class="a" d="M164.03,169.711a3.431,3.431,0,0,1-.031.448l.023-.166a3.3,3.3,0,0,1-.143.593c-.016.045-.033.09-.05.134q-.036.09.031-.073c-.011.026-.023.052-.035.078-.043.095-.093.187-.145.277s-.1.16-.154.237c-.093.131.1-.122,0,0-.035.044-.072.087-.109.129a3.192,3.192,0,0,1-.432.4l.132-.1a3.276,3.276,0,0,1-.708.413l.16-.067a3.255,3.255,0,0,1-.81.219l.171-.022a3.308,3.308,0,0,1-.866,0l.166.023a3.3,3.3,0,0,1-.593-.143c-.045-.016-.09-.033-.134-.05l.073.031-.078-.035c-.095-.043-.187-.093-.277-.145s-.16-.1-.237-.154c-.131-.093.122.1,0,0-.044-.035-.087-.072-.129-.109a3.2,3.2,0,0,1-.4-.432l.1.132a3.278,3.278,0,0,1-.413-.708l.067.16a3.257,3.257,0,0,1-.219-.81l.022.171a3.307,3.307,0,0,1,0-.866l-.023.166a3.306,3.306,0,0,1,.143-.593c.015-.045.033-.09.05-.134q.036-.09-.031.073c.011-.026.023-.052.035-.078.043-.095.093-.187.145-.277s.1-.16.154-.237c.093-.131-.1.122,0,0,.035-.044.072-.087.109-.129a3.194,3.194,0,0,1,.432-.4l-.132.1a3.277,3.277,0,0,1,.708-.413l-.16.067a3.257,3.257,0,0,1,.81-.219l-.171.022a3.308,3.308,0,0,1,.866,0l-.166-.023a3.3,3.3,0,0,1,.593.143c.045.016.09.033.134.05l-.073-.031.078.035c.095.043.187.093.277.145s.16.1.237.154c.131.093-.122-.1,0,0,.044.035.087.072.129.109a3.19,3.19,0,0,1,.4.432l-.1-.132a3.278,3.278,0,0,1,.413.708l-.067-.16a3.258,3.258,0,0,1,.219.81l-.022-.171a3.441,3.441,0,0,1,.027.418.645.645,0,0,0,1.289.009,3.837,3.837,0,0,0-1.339-2.905,3.8,3.8,0,0,0-3.238-.839,3.811,3.811,0,0,0-2.811,5.082,3.8,3.8,0,0,0,2.359,2.277,3.816,3.816,0,0,0,5.028-3.615.645.645,0,0,0-1.289-.009Z" transform="translate(-157.685 -165.902)"/></g></g><g transform="translate(0 6.406)"><g transform="translate(0 0)"><path class="a" d="M50.131,470.492a6.393,6.393,0,0,0-2.841-5.324,6.393,6.393,0,0,0-5.951-.617,6.4,6.4,0,0,0-3.865,4.56,6.61,6.61,0,0,0-.15,1.372.651.651,0,0,0,.64.649H49.482a.645.645,0,0,0,.009-1.289H37.974l.64.649a6.028,6.028,0,0,1,.056-.8l-.023.166a5.872,5.872,0,0,1,.256-1.071c.028-.081.058-.162.089-.242l.021-.053c.043-.107-.065.153-.02.047.019-.044.038-.087.058-.13.079-.172.167-.339.262-.5s.188-.3.292-.449l.067-.091-.049.064.052-.066c.058-.073.118-.145.18-.216a5.8,5.8,0,0,1,.8-.75l-.132.1a5.858,5.858,0,0,1,1.314-.769l-.16.067a5.83,5.83,0,0,1,1.477-.4l-.171.022a5.925,5.925,0,0,1,1.548.008l-.166-.023a5.866,5.866,0,0,1,1.071.256c.081.028.162.058.242.089l.053.021c.108.043-.153-.065-.047-.02l.13.058c.172.078.339.167.5.262s.3.188.449.292l.091.067-.064-.049.066.052c.073.058.145.118.216.18a5.8,5.8,0,0,1,.75.8l-.1-.132a5.857,5.857,0,0,1,.769,1.314l-.067-.16a5.829,5.829,0,0,1,.4,1.477l-.022-.171a6.056,6.056,0,0,1,.048.745.645.645,0,0,0,1.289.009Z" transform="translate(-37.325 -464.085)"/></g></g><g transform="translate(11.844 1.74)"><g transform="translate(0 0)"><path class="a" d="M589.249,248.2h6.332a.645.645,0,0,0,.009-1.289h-6.332a.645.645,0,0,0-.009,1.289Z" transform="translate(-588.609 -246.912)"/></g></g><g transform="translate(12.936 6.08)"><g transform="translate(0 0)"><path class="a" d="M640.061,450.175h5.24a.645.645,0,0,0,.009-1.289h-5.24a.645.645,0,1,0-.009,1.289Z" transform="translate(-639.42 -448.886)"/></g></g><g transform="translate(15.119 10.419)"><g transform="translate(0 0)"><path class="a" d="M741.682,652.149h3.057a.645.645,0,0,0,.009-1.289h-3.057a.645.645,0,0,0-.009,1.289Z" transform="translate(-741.042 -650.86)"/></g></g></svg>