<svg xmlns="http://www.w3.org/2000/svg" width="17.952" height="22.215" viewBox="0 0 17.952 22.215">
  <g id="Group_4086" data-name="Group 4086" transform="translate(-115.12 -83.362)">
    <path id="Path_5295" data-name="Path 5295" d="M117.646,89.891a3.763,3.763,0,0,0,.379.916l-.5.669a.275.275,0,0,0,.026.356l.865.865a.271.271,0,0,0,.356.026l.669-.5a3.737,3.737,0,0,0,.919.379l.118.83a.268.268,0,0,0,.27.233h1.221a.272.272,0,0,0,.27-.233l.118-.83a3.764,3.764,0,0,0,.916-.379l.672.5a.271.271,0,0,0,.356-.026l.865-.865a.275.275,0,0,0,.026-.356l-.5-.669a3.692,3.692,0,0,0,.376-.916l.833-.121a.27.27,0,0,0,.233-.27V88.28a.275.275,0,0,0-.233-.27l-.83-.118a3.833,3.833,0,0,0-.379-.916l.5-.672a.275.275,0,0,0-.026-.356l-.865-.865a.275.275,0,0,0-.356-.026l-.672.506a3.771,3.771,0,0,0-.916-.382l-.118-.83a.275.275,0,0,0-.27-.233h-1.221a.27.27,0,0,0-.27.233l-.121.833a3.743,3.743,0,0,0-.914.379l-.672-.506a.275.275,0,0,0-.356.026l-.865.865a.275.275,0,0,0-.026.356l.5.672a3.717,3.717,0,0,0-.379.916l-.83.118a.272.272,0,0,0-.233.27V89.5a.268.268,0,0,0,.233.27Zm-.517-1.376.779-.109a.279.279,0,0,0,.23-.215,3.149,3.149,0,0,1,.448-1.083.272.272,0,0,0-.011-.313l-.471-.629.529-.529.629.471a.272.272,0,0,0,.313.012,3.2,3.2,0,0,1,1.083-.448.269.269,0,0,0,.213-.227l.112-.781h.75l.109.779a.279.279,0,0,0,.187.221l.029.009a3.2,3.2,0,0,1,1.083.448.272.272,0,0,0,.313-.012l.629-.471.529.529-.471.629a.272.272,0,0,0-.009.316,3.269,3.269,0,0,1,.445,1.08l.009.029a.274.274,0,0,0,.221.187l.779.109v.75l-.781.112a.269.269,0,0,0-.227.213,3.245,3.245,0,0,1-.448,1.086.273.273,0,0,0,.011.31l.471.629-.529.529-.629-.471a.277.277,0,0,0-.313-.012,3.148,3.148,0,0,1-1.083.448.279.279,0,0,0-.215.23l-.109.779h-.75l-.109-.779a.275.275,0,0,0-.215-.227,3.265,3.265,0,0,1-1.083-.448.258.258,0,0,0-.063-.032.277.277,0,0,0-.25.04l-.629.471-.529-.529.471-.629a.274.274,0,0,0,.055-.164.285.285,0,0,0-.046-.149,3.217,3.217,0,0,1-.448-1.083.269.269,0,0,0-.227-.213l-.779-.112Z" transform="translate(2.74 1.414)" fill="none"/>
    <path id="Path_5296" data-name="Path 5296" d="M119.436,88.794a1.826,1.826,0,1,0-1.827-1.824A1.827,1.827,0,0,0,119.436,88.794Zm0-3.105a1.28,1.28,0,1,1-1.281,1.281A1.282,1.282,0,0,1,119.436,85.689Z" transform="translate(4.661 3.335)" fill="none"/>
    <path id="Path_5298" data-name="Path 5298" d="M129.849,83.362H118.343a3.224,3.224,0,0,0-3.223,3.223v15.769a3.222,3.222,0,0,0,3.223,3.223h11.505a3.222,3.222,0,0,0,3.223-3.223V86.585A3.224,3.224,0,0,0,129.849,83.362Zm-10.526,6.332a.272.272,0,0,1,.233-.27l.83-.118a3.716,3.716,0,0,1,.379-.916l-.5-.672a.275.275,0,0,1,.026-.356l.865-.865a.275.275,0,0,1,.356-.026l.672.506a3.742,3.742,0,0,1,.914-.379l.121-.833a.27.27,0,0,1,.27-.233h1.221a.275.275,0,0,1,.27.233l.118.83a3.77,3.77,0,0,1,.916.382l.672-.506a.275.275,0,0,1,.356.026l.865.865a.275.275,0,0,1,.026.356l-.5.672a3.833,3.833,0,0,1,.379.916l.83.118a.275.275,0,0,1,.233.27v1.221a.27.27,0,0,1-.233.27l-.833.121a3.693,3.693,0,0,1-.376.916l.5.669a.275.275,0,0,1-.026.356l-.865.865a.272.272,0,0,1-.356.026l-.672-.5a3.764,3.764,0,0,1-.916.379l-.118.83a.272.272,0,0,1-.27.233h-1.221a.268.268,0,0,1-.27-.233l-.118-.83a3.737,3.737,0,0,1-.919-.379l-.669.5a.271.271,0,0,1-.356-.026l-.865-.865a.275.275,0,0,1-.026-.356l.5-.669a3.763,3.763,0,0,1-.379-.916l-.83-.121a.268.268,0,0,1-.233-.27Zm4.53,14.249h-4.976a.322.322,0,0,1,0-.644h4.976a.322.322,0,0,1,0,.644Zm1.29-2.867h-6.266a.32.32,0,1,1,0-.641h6.266a.32.32,0,0,1,0,.641Zm4.171-2.864H118.878a.322.322,0,0,1,0-.644h10.437a.322.322,0,1,1,0,.644Z" transform="translate(0 0)" fill="#bfb4fd"/>
    <circle id="Ellipse_2" data-name="Ellipse 2" cx="1.28" cy="1.28" r="1.28" transform="translate(122.816 89.025)" fill="#bfb4fd"/>
  </g>
</svg>
