<svg xmlns="http://www.w3.org/2000/svg" width="16.708" height="11.696" viewBox="0 0 16.708 11.696"><defs><style>.a{fill:#fff;}</style></defs><path class="a" d="M497.023-17.067a2.921,2.921,0,0,1,1.5.4,3.013,3.013,0,0,1,1.1,1.1,2.922,2.922,0,0,1,.4,1.5v.757a1.207,1.207,0,0,1-.365.888,1.209,1.209,0,0,1-.888.365h-7.519a1.207,1.207,0,0,1-.888-.365,1.207,1.207,0,0,1-.365-.888v-.757a2.921,2.921,0,0,1,.4-1.5,3.013,3.013,0,0,1,1.1-1.1,2.922,2.922,0,0,1,1.5-.4h.209a4.189,4.189,0,0,0,1.8.418,4.19,4.19,0,0,0,1.8-.418Zm-2.011-.835a2.873,2.873,0,0,1-1.462-.392,2.864,2.864,0,0,1-1.069-1.069,2.874,2.874,0,0,1-.392-1.463,2.867,2.867,0,0,1,.392-1.461,2.859,2.859,0,0,1,1.069-1.07,2.874,2.874,0,0,1,1.462-.392,2.867,2.867,0,0,1,1.461.392,2.855,2.855,0,0,1,1.07,1.07,2.867,2.867,0,0,1,.392,1.461,2.874,2.874,0,0,1-.392,1.463,2.86,2.86,0,0,1-1.07,1.069A2.867,2.867,0,0,1,495.012-17.9Zm8.772.835a2.867,2.867,0,0,1,1.461.392,2.855,2.855,0,0,1,1.07,1.07,2.867,2.867,0,0,1,.392,1.461,1.207,1.207,0,0,1-.365.888,1.209,1.209,0,0,1-.888.365h-4.62l.026-1.175a3.639,3.639,0,0,0-.274-1.4,4.158,4.158,0,0,0-.771-1.213,2.967,2.967,0,0,1,1.462-.392h.1a3.493,3.493,0,0,0,1.148.209,3.493,3.493,0,0,0,1.148-.209Zm-1.253-.835a2.42,2.42,0,0,1-1.775-.731,2.42,2.42,0,0,1-.731-1.776,2.42,2.42,0,0,1,.731-1.776,2.42,2.42,0,0,1,1.775-.731,2.42,2.42,0,0,1,1.776.731,2.42,2.42,0,0,1,.731,1.776,2.42,2.42,0,0,1-.731,1.776A2.42,2.42,0,0,1,502.531-17.9Z" transform="translate(-490 23.75)"/></svg>