<svg xmlns="http://www.w3.org/2000/svg" width="18.996" height="13.294" viewBox="0 0 18.996 13.294"><defs><style>.a{fill:#bfb4fd;}</style></defs><path class="a" d="M516.884-87.54A4.161,4.161,0,0,0,515.4-86.2a4.384,4.384,0,0,0-.742,1.9H512.7a.909.909,0,0,1-.667-.282.909.909,0,0,1-.282-.667v-.95a1.826,1.826,0,0,1,.563-1.336,1.826,1.826,0,0,1,1.336-.563h1.9A1.826,1.826,0,0,1,516.884-87.54ZM514.6-89.053a1.826,1.826,0,0,1-1.336-.563,1.826,1.826,0,0,1-.563-1.336,1.826,1.826,0,0,1,.563-1.336,1.826,1.826,0,0,1,1.336-.563,1.826,1.826,0,0,1,1.336.563,1.826,1.826,0,0,1,.563,1.336,1.826,1.826,0,0,1-.563,1.336A1.826,1.826,0,0,1,514.6-89.053Zm9.763,6.706v.3a1.14,1.14,0,0,0,.179.594h-7.567a1.372,1.372,0,0,1-1.009-.415,1.372,1.372,0,0,1-.415-1.009v-.861a3.32,3.32,0,0,1,.46-1.705,3.424,3.424,0,0,1,1.247-1.247,3.32,3.32,0,0,1,1.705-.46h.267a4.577,4.577,0,0,0,2.018.475l.3-.029a.883.883,0,0,0,.3.237l.237.148v.238h-.029a1.922,1.922,0,0,0-.534.415A1.011,1.011,0,0,0,521.3-84.6a5.462,5.462,0,0,0,1.186,2.076,1.172,1.172,0,0,0,.861.357,1.537,1.537,0,0,0,.742-.238l.06-.029h.059A.248.248,0,0,0,524.361-82.346ZM521.245-88.1a3.266,3.266,0,0,1-1.662-.446,3.256,3.256,0,0,1-1.215-1.215,3.267,3.267,0,0,1-.446-1.662,3.259,3.259,0,0,1,.446-1.661,3.278,3.278,0,0,1,1.2-1.217,3.209,3.209,0,0,1,1.661-.446,3.287,3.287,0,0,1,1.676.446,3.244,3.244,0,0,1,1.217,1.217,3.259,3.259,0,0,1,.446,1.661A3.258,3.258,0,0,1,524.242-90l-.089.029-.238-.118a1.143,1.143,0,0,0-.563-.148,1.171,1.171,0,0,0-.861.356,5.393,5.393,0,0,0-1.067,1.751l-.09.029Zm8.635,2.522.742.446a.239.239,0,0,1,.119.267,4.245,4.245,0,0,1-1.009,1.691.2.2,0,0,1-.267.029l-.742-.415a3.542,3.542,0,0,1-1.1.623v.89a.19.19,0,0,1-.178.208,4.637,4.637,0,0,1-1.957,0,.19.19,0,0,1-.178-.208v-.89a3.542,3.542,0,0,1-1.1-.623l-.772.415a.2.2,0,0,1-.267-.029,4.42,4.42,0,0,1-.979-1.691.2.2,0,0,1,.119-.267l.742-.446a3.275,3.275,0,0,1,0-1.246l-.742-.446a.239.239,0,0,1-.119-.267,4.42,4.42,0,0,1,.979-1.691.229.229,0,0,1,.267-.058l.772.444a3.542,3.542,0,0,1,1.1-.623v-.89a.19.19,0,0,1,.178-.208,4.637,4.637,0,0,1,1.957,0,.19.19,0,0,1,.178.208v.89a3.542,3.542,0,0,1,1.1.623l.742-.415a.2.2,0,0,1,.267.029,4.245,4.245,0,0,1,1.009,1.691.239.239,0,0,1-.119.267l-.771.446A3.778,3.778,0,0,1,529.88-85.581Zm-3.412.8a1.425,1.425,0,0,0,1.024-.415,1.3,1.3,0,0,0,.415-1.009,1.429,1.429,0,0,0-.43-1.009,1.374,1.374,0,0,0-1.009-.415,1.423,1.423,0,0,0-1.024.415,1.3,1.3,0,0,0-.415,1.009,1.426,1.426,0,0,0,.43,1.009A1.372,1.372,0,0,0,526.468-84.78Z" transform="translate(-511.75 94.75)"/></svg>